<svg width="57" height="80" viewBox="0 0 57 80" fill="none" xmlns="http://www.w3.org/2000/svg">
<path d="M56.7936 16L51.6919 73.5933L28.7594 80L5.88998 73.6023L0.79364 16H56.7936Z" fill="#264DE4"/>
<path d="M47.413 69.8604L51.7936 21H28.7936V75L47.413 69.8604Z" fill="#2965F1"/>
<path d="M11.7936 42L12.4483 49H28.7936V42H11.7936Z" fill="#EBEBEB"/>
<path d="M28.7936 28H28.7688H10.7936L11.4462 35H28.7936V28Z" fill="#EBEBEB"/>
<path d="M28.7936 67.991V60.6943L28.7617 60.7025L20.6366 58.5934L20.1172 53H16.169H12.7936L13.8157 64.0119L28.7601 68L28.7936 67.991Z" fill="#EBEBEB"/>
<path d="M13.7936 0H22.7936V3.66667H17.5573V7.33333H22.7936V11H13.7936V0Z" fill="black"/>
<path d="M23.7936 0H32.7936V3.14286H27.5573V3.77143H32.7936V11H23.7936V7.7H29.03V7.07143H23.7936V0Z" fill="black"/>
<path d="M34.7936 0H42.7936V3.14286H38.1391V3.77143H42.7936V11H34.7936V7.7H39.4482V7.07143H34.7936V0Z" fill="black"/>
<path d="M37.6419 49.3623L36.8078 58.524L28.7936 60.6506V68L43.5245 63.9863L43.6326 62.7928L45.3211 44.1951L45.4964 42.2981L46.7936 28H28.7936V35.0643H38.9189L38.265 42.2981H28.7936V49.3623H37.6419Z" fill="white"/>
</svg>
