<svg width="72" height="72" viewBox="0 0 72 72" fill="none" xmlns="http://www.w3.org/2000/svg">
<path d="M68.7537 32.9627L39.3883 3.1851C37.6974 1.46971 34.9548 1.46971 33.2625 3.1851L27.1653 9.36967L34.8999 17.2132C36.6976 16.5971 38.7588 17.0106 40.1912 18.4639C41.6325 19.9262 42.0365 22.0343 41.4136 23.8639L48.8693 31.4239C50.6736 30.793 52.7538 31.2013 54.1943 32.6643C56.2072 34.7055 56.2072 38.0131 54.1943 40.0558C52.18 42.0978 48.9184 42.0978 46.9033 40.0558C45.3896 38.5193 45.0148 36.2628 45.7827 34.3715L38.829 27.3207V45.8752C39.3195 46.1216 39.7828 46.4497 40.1912 46.8639C42.2041 48.9051 42.2041 52.2126 40.1912 54.2561C38.1783 56.2966 34.9145 56.2966 32.9031 54.2561C30.8902 52.2119 30.8902 48.9044 32.9031 46.8639C33.4008 46.3599 33.9769 45.9783 34.5917 45.723V26.9956C33.9769 26.7402 33.4023 26.3624 32.9031 25.8547C31.3784 24.3093 31.0117 22.0394 31.7935 20.1407L24.1686 12.407L4.03246 32.8246C2.3409 34.5415 2.3409 37.3227 4.03246 39.0381L33.3994 68.8164C35.0902 70.5318 37.8321 70.5318 39.5251 68.8164L68.7537 39.1762C70.4453 37.4608 70.4453 34.678 68.7537 32.9627Z" fill="#F05133"/>
</svg>
