<svg width="64" height="64" viewBox="0 0 64 64" fill="none" xmlns="http://www.w3.org/2000/svg">
<path d="M32 14C22.061 14 14 22.0595 14 32C14 39.953 19.157 46.7 26.3105 49.0805C27.209 49.247 27.5 48.689 27.5 48.215V44.864C22.493 45.953 21.4505 42.74 21.4505 42.74C20.6315 40.6595 19.451 40.106 19.451 40.106C17.8175 38.9885 19.5755 39.0125 19.5755 39.0125C21.383 39.1385 22.334 40.868 22.334 40.868C23.939 43.619 26.5445 42.824 27.572 42.3635C27.7325 41.201 28.199 40.406 28.715 39.9575C24.7175 39.5 20.5145 37.9565 20.5145 31.061C20.5145 29.0945 21.218 27.4895 22.3685 26.2295C22.1825 25.775 21.566 23.9435 22.544 21.4655C22.544 21.4655 24.056 20.9825 27.4955 23.3105C28.931 22.9115 30.47 22.712 32 22.7045C33.53 22.712 35.0705 22.9115 36.509 23.3105C39.9455 20.9825 41.4545 21.4655 41.4545 21.4655C42.434 23.945 41.8175 25.7765 41.6315 26.2295C42.7865 27.4895 43.484 29.096 43.484 31.061C43.484 37.9745 39.2735 39.497 35.2655 39.9425C35.9105 40.5005 36.5 41.5955 36.5 43.2755V48.215C36.5 48.6935 36.788 49.256 37.7015 49.079C44.849 46.6955 50 39.95 50 32C50 22.0595 41.9405 14 32 14Z" fill="white"/>
</svg>
