<svg width="57" height="80" viewBox="0 0 57 80" fill="none" xmlns="http://www.w3.org/2000/svg">
<path d="M5.38739 0H8.98114V3.5625H12.2936V0H15.8874V10.7812H12.2936V7.1875H9.01239V10.7812H5.38739V0ZM20.6374 3.59375H17.4655V0H27.4186V3.59375H24.2311V10.7812H20.6374V3.59375ZM28.9968 0H32.7624L35.0749 3.79688L37.3874 0H41.153V10.7812H37.5593V5.4375L35.0436 9.3125L32.528 5.4375V10.7812H28.9968V0ZM42.9343 0H46.528V7.21875H51.6218V10.7812H42.9343" fill="black"/>
<path d="M5.26239 73.5938L0.10614 15.7188H56.7936L51.6374 73.5625L28.403 80" fill="#E44D26"/>
<path d="M28.4499 75.0781V20.4688H51.6218L47.1999 69.8438" fill="#F16529"/>
<path d="M10.6374 27.5469H28.4499V34.6406H18.4186L19.0749 41.9063H28.4499V48.9844H12.5749L10.6374 27.5469ZM12.8874 52.5469H20.0124L20.5124 58.2188L28.4499 60.3438V67.75L13.8874 63.6875" fill="#EBEBEB"/>
<path d="M46.1999 27.5469H28.4186V34.6406H45.5437L46.1999 27.5469ZM44.903 41.9062H28.4186V49H37.1686L36.3405 58.2187L28.4186 60.3438V67.7187L42.9499 63.6875" fill="white"/>
</svg>
