<svg width="64" height="64" viewBox="0 0 64 64" fill="none" xmlns="http://www.w3.org/2000/svg">
<path d="M46.91 25.816C46.837 24.219 46.584 23.129 46.213 22.175C45.83 21.189 45.317 20.352 44.483 19.518C43.649 18.684 42.813 18.171 41.826 17.788C40.872 17.417 39.781 17.164 38.185 17.091C36.585 17.017 36.074 17 32 17C27.926 17 27.415 17.017 25.816 17.09C24.219 17.163 23.129 17.416 22.175 17.787C21.189 18.17 20.352 18.683 19.518 19.517C18.684 20.351 18.171 21.187 17.788 22.174C17.417 23.128 17.164 24.219 17.091 25.815C17.017 27.415 17 27.926 17 32C17 36.074 17.017 36.585 17.09 38.184C17.163 39.781 17.416 40.871 17.787 41.825C18.17 42.811 18.683 43.648 19.517 44.482C20.351 45.316 21.187 45.829 22.174 46.212C23.128 46.583 24.219 46.836 25.815 46.909C27.415 46.983 27.926 47 32 47C36.074 47 36.585 46.983 38.184 46.91C39.781 46.837 40.871 46.584 41.825 46.213C42.811 45.83 43.648 45.317 44.482 44.483C45.316 43.649 45.829 42.813 46.212 41.826C46.583 40.872 46.836 39.781 46.909 38.185C46.983 36.585 47 36.074 47 32C47 27.926 46.983 27.415 46.91 25.816ZM44.21 38.061C44.143 39.523 43.899 40.318 43.694 40.846C43.422 41.546 43.097 42.046 42.572 42.571C42.047 43.096 41.547 43.421 40.847 43.693C40.318 43.898 39.524 44.143 38.062 44.209C36.481 44.281 36.006 44.296 32.001 44.296C27.996 44.296 27.521 44.281 25.94 44.209C24.478 44.142 23.683 43.898 23.155 43.693C22.455 43.421 21.955 43.096 21.43 42.571C20.905 42.046 20.58 41.546 20.308 40.846C20.103 40.317 19.858 39.523 19.792 38.061C19.72 36.479 19.705 36.005 19.705 32C19.705 27.995 19.72 27.52 19.792 25.939C19.859 24.477 20.103 23.682 20.308 23.154C20.58 22.454 20.905 21.954 21.43 21.429C21.955 20.904 22.455 20.579 23.155 20.307C23.684 20.102 24.478 19.857 25.94 19.791C27.522 19.719 27.996 19.704 32.001 19.704C36.006 19.704 36.481 19.719 38.062 19.791C39.524 19.858 40.319 20.102 40.847 20.307C41.547 20.579 42.047 20.904 42.572 21.429C43.097 21.954 43.422 22.454 43.694 23.154C43.899 23.683 44.144 24.477 44.21 25.939C44.282 27.521 44.297 27.995 44.297 32C44.297 36.005 44.282 36.48 44.21 38.061ZM32 24.297C27.746 24.297 24.297 27.746 24.297 32C24.297 36.254 27.746 39.703 32 39.703C36.254 39.703 39.703 36.254 39.703 32C39.703 27.746 36.254 24.297 32 24.297ZM32 37C29.239 37 27 34.761 27 32C27 29.239 29.239 27 32 27C34.761 27 37 29.239 37 32C37 34.761 34.761 37 32 37ZM40.007 22.193C39.013 22.193 38.207 22.999 38.207 23.993C38.207 24.987 39.013 25.793 40.007 25.793C41.001 25.793 41.807 24.987 41.807 23.993C41.807 22.999 41.001 22.193 40.007 22.193Z" fill="white"/>
</svg>
