<svg width="64" height="64" viewBox="0 0 64 64" fill="none" xmlns="http://www.w3.org/2000/svg">
<path fill-rule="evenodd" clip-rule="evenodd" d="M32 15C41.3889 15 49 22.6111 49 32C49 41.3889 41.3889 49 32 49C22.6111 49 15 41.3889 15 32C15 22.6111 22.6111 15 32 15ZM40.1823 24.3029L37.1494 39.5946C37.1494 39.5946 36.7252 40.655 35.5588 40.1458L28.581 34.6527C28.581 34.6527 36.3436 27.675 36.6616 27.3781C36.9797 27.0812 36.8737 27.0176 36.8737 27.0176C36.8948 26.657 36.301 27.0176 36.301 27.0176L26.0148 33.55L21.7306 32.1077C21.7306 32.1077 21.0731 31.8743 21.0095 31.3655C20.9459 30.8563 21.7518 30.5807 21.7518 30.5807L38.7827 23.8999C38.7827 23.8999 40.1823 23.2848 40.1823 24.3029ZM31.2434 36.8375L28.475 39.3615C28.475 39.3615 28.2585 39.5256 28.0218 39.4228L28.5519 34.7344L31.2434 36.8375Z" fill="white"/>
</svg>
